<?xml version="1.0" encoding="UTF-8"?>
<svg width="144px" height="144px" viewBox="0 0 144 144" version="1.1" xmlns="http://www.w3.org/2000/svg" xmlns:xlink="http://www.w3.org/1999/xlink">
    <!-- Generator: Sketch 56.3 (81716) - https://sketch.com -->
    <title>矩形</title>
    <desc>Created with Sketch.</desc>
    <defs>
        <linearGradient x1="16.5141793%" y1="25.7632665%" x2="81.547361%" y2="50%" id="linearGradient-1">
            <stop stop-color="#3F00A1" offset="0%"></stop>
            <stop stop-color="#7E00CA" offset="49.5539485%"></stop>
            <stop stop-color="#41009C" offset="100%"></stop>
        </linearGradient>
        <radialGradient cx="74.161377%" cy="73.4083673%" fx="74.161377%" fy="73.4083673%" r="13.5957746%" gradientTransform="translate(0.741614,0.734084),scale(0.901518,1.000000),rotate(-46.542332),scale(1.000000,0.521478),translate(-0.741614,-0.734084)" id="radialGradient-2">
            <stop stop-color="#FC2AFF" stop-opacity="0.79" offset="0%"></stop>
            <stop stop-color="#FF3075" stop-opacity="0" offset="100%"></stop>
        </radialGradient>
        <radialGradient cx="23.430331%" cy="79.4551063%" fx="23.430331%" fy="79.4551063%" r="24.5935986%" gradientTransform="translate(0.234303,0.794551),scale(0.901518,1.000000),rotate(48.504065),scale(1.000000,0.428243),translate(-0.234303,-0.794551)" id="radialGradient-3">
            <stop stop-color="#A700E9" offset="0%"></stop>
            <stop stop-color="#5C2CFF" stop-opacity="0" offset="100%"></stop>
        </radialGradient>
        <polygon id="path-4" points="16.183332 2.525112 20.477952 5.544612 25.572492 10.989612 21.275892 7.968132"></polygon>
        <linearGradient x1="16.5141793%" y1="23.1099487%" x2="81.547361%" y2="50%" id="linearGradient-5">
            <stop stop-color="#3F00A1" offset="0%"></stop>
            <stop stop-color="#7E00CA" offset="49.5539485%"></stop>
            <stop stop-color="#41009C" offset="100%"></stop>
        </linearGradient>
        <radialGradient cx="74.161377%" cy="73.4083673%" fx="74.161377%" fy="73.4083673%" r="13.2746461%" gradientTransform="translate(0.741614,0.734084),scale(0.949584,1.000000),rotate(-48.025509),scale(1.000000,0.521478),translate(-0.741614,-0.734084)" id="radialGradient-6">
            <stop stop-color="#FC2AFF" stop-opacity="0.79" offset="0%"></stop>
            <stop stop-color="#FF3075" stop-opacity="0" offset="100%"></stop>
        </radialGradient>
        <radialGradient cx="23.430331%" cy="79.4551063%" fx="23.430331%" fy="79.4551063%" r="24.055043%" gradientTransform="translate(0.234303,0.794551),scale(0.949584,1.000000),rotate(49.975700),scale(1.000000,0.428243),translate(-0.234303,-0.794551)" id="radialGradient-7">
            <stop stop-color="#A700E9" offset="0%"></stop>
            <stop stop-color="#5C2CFF" stop-opacity="0" offset="100%"></stop>
        </radialGradient>
        <polygon id="path-8" points="21.276486 7.968132 25.573086 10.989612 9.408366 27.397872 5.111766 24.378372"></polygon>
        <radialGradient cx="55.1144661%" cy="97.4446357%" fx="55.1144661%" fy="97.4446357%" r="48.6258735%" gradientTransform="translate(0.551145,0.974446),scale(1.000000,0.973634),rotate(-22.735382),scale(1.000000,0.749334),translate(-0.551145,-0.974446)" id="radialGradient-9">
            <stop stop-color="#636FFF" stop-opacity="0.7" offset="0%"></stop>
            <stop stop-color="#7746FF" stop-opacity="0" offset="99.9155405%"></stop>
        </radialGradient>
        <radialGradient cx="34.7047891%" cy="21.7790317%" fx="34.7047891%" fy="21.7790317%" r="20.8910467%" gradientTransform="translate(0.347048,0.217790),scale(1.000000,0.973634),rotate(57.652724),scale(1.000000,1.368410),translate(-0.347048,-0.217790)" id="radialGradient-10">
            <stop stop-color="#DAE3FF" stop-opacity="0.99" offset="0.0369510135%"></stop>
            <stop stop-color="#0016AB" stop-opacity="0.02" offset="100%"></stop>
        </radialGradient>
        <radialGradient cx="36.3240165%" cy="28.0498589%" fx="36.3240165%" fy="28.0498589%" r="27.0735282%" gradientTransform="translate(0.363240,0.280499),scale(1.000000,0.973634),rotate(63.732697),scale(1.000000,1.825024),translate(-0.363240,-0.280499)" id="radialGradient-11">
            <stop stop-color="#6B45FF" offset="0.023754223%"></stop>
            <stop stop-color="#8223FF" stop-opacity="0" offset="100%"></stop>
        </radialGradient>
        <radialGradient cx="6.68628678%" cy="69.1383893%" fx="6.68628678%" fy="69.1383893%" r="27.3718433%" gradientTransform="translate(0.066863,0.691384),scale(1.000000,0.973634),rotate(-30.245767),scale(1.000000,0.591610),translate(-0.066863,-0.691384)" id="radialGradient-12">
            <stop stop-color="#00AAFF" stop-opacity="0.7" offset="0%"></stop>
            <stop stop-color="#1D79FF" stop-opacity="0" offset="100%"></stop>
        </radialGradient>
        <radialGradient cx="95.2238749%" cy="28.8919326%" fx="95.2238749%" fy="28.8919326%" r="45.34156%" gradientTransform="translate(0.952239,0.288919),scale(1.000000,0.973634),rotate(59.294418),scale(1.000000,1.049582),translate(-0.952239,-0.288919)" id="radialGradient-13">
            <stop stop-color="#FF006D" offset="0%"></stop>
            <stop stop-color="#FF009F" stop-opacity="0" offset="100%"></stop>
        </radialGradient>
        <radialGradient cx="50%" cy="98.0735736%" fx="50%" fy="98.0735736%" r="21.0906686%" gradientTransform="translate(0.500000,0.980736),scale(1.000000,0.973634),rotate(50.535111),scale(1.000000,2.302262),translate(-0.500000,-0.980736)" id="radialGradient-14">
            <stop stop-color="#FF003B" offset="0%"></stop>
            <stop stop-color="#FF0034" stop-opacity="0" offset="99.9155405%"></stop>
        </radialGradient>
        <radialGradient cx="106.357268%" cy="48.2569671%" fx="106.357268%" fy="48.2569671%" r="7.14195699%" gradientTransform="translate(1.063573,0.482570),scale(1.000000,0.973634),rotate(56.522507),scale(1.000000,3.924582),translate(-1.063573,-0.482570)" id="radialGradient-15">
            <stop stop-color="#FFA486" stop-opacity="0.99" offset="0%"></stop>
            <stop stop-color="#FF4377" stop-opacity="0.02" offset="99.0181588%"></stop>
        </radialGradient>
        <radialGradient cx="65.1513808%" cy="98.8545657%" fx="65.1513808%" fy="98.8545657%" r="7.54081524%" gradientTransform="translate(0.651514,0.988546),scale(1.000000,0.973634),rotate(55.245786),scale(1.000000,2.415944),translate(-0.651514,-0.988546)" id="radialGradient-16">
            <stop stop-color="#FF9000" offset="0%"></stop>
            <stop stop-color="#FF9D40" stop-opacity="0" offset="99.9155405%"></stop>
        </radialGradient>
        <radialGradient cx="28.6353482%" cy="8.85349246%" fx="28.6353482%" fy="8.85349246%" r="27.3718433%" gradientTransform="translate(0.286353,0.088535),scale(1.000000,0.973634),rotate(-30.245767),scale(1.000000,0.591610),translate(-0.286353,-0.088535)" id="radialGradient-17">
            <stop stop-color="#3491FF" offset="0%"></stop>
            <stop stop-color="#FF3492" stop-opacity="0" offset="100%"></stop>
        </radialGradient>
        <radialGradient cx="68.56396%" cy="37.8111248%" fx="68.56396%" fy="37.8111248%" r="8.91278022%" gradientTransform="translate(0.685640,0.378111),scale(1.000000,0.973634),rotate(54.788594),scale(1.000000,4.336251),translate(-0.685640,-0.378111)" id="radialGradient-18">
            <stop stop-color="#FF5300" offset="0%"></stop>
            <stop stop-color="#FF8E40" stop-opacity="0" offset="99.9155405%"></stop>
        </radialGradient>
        <polygon id="path-19" points="0 18.950994 5.11038 24.378174 21.27708 7.967934 16.18452 2.524914"></polygon>
        <filter x="-190.3%" y="-185.3%" width="480.7%" height="470.7%" filterUnits="objectBoundingBox" id="filter-20">
            <feGaussianBlur stdDeviation="22.5" in="SourceAlpha" result="shadowBlurInner1"></feGaussianBlur>
            <feOffset dx="18" dy="36" in="shadowBlurInner1" result="shadowOffsetInner1"></feOffset>
            <feComposite in="shadowOffsetInner1" in2="SourceAlpha" operator="arithmetic" k2="-1" k3="1" result="shadowInnerInner1"></feComposite>
            <feColorMatrix values="0 0 0 0 1   0 0 0 0 0   0 0 0 0 0.918979458  0 0 0 0.67 0" type="matrix" in="shadowInnerInner1"></feColorMatrix>
        </filter>
        <linearGradient x1="16.5141793%" y1="21.2758492%" x2="81.547361%" y2="50%" id="linearGradient-21">
            <stop stop-color="#3F00A1" offset="0%"></stop>
            <stop stop-color="#7E00CA" offset="49.5539485%"></stop>
            <stop stop-color="#41009C" offset="100%"></stop>
        </linearGradient>
        <radialGradient cx="74.161377%" cy="73.4083673%" fx="74.161377%" fy="73.4083673%" r="13.0837068%" gradientTransform="translate(0.741614,0.734084),scale(0.981434,1.000000),rotate(-48.963564),scale(1.000000,0.521478),translate(-0.741614,-0.734084)" id="radialGradient-22">
            <stop stop-color="#FC2AFF" stop-opacity="0.79" offset="0%"></stop>
            <stop stop-color="#FF3075" stop-opacity="0" offset="100%"></stop>
        </radialGradient>
        <radialGradient cx="23.430331%" cy="79.4551063%" fx="23.430331%" fy="79.4551063%" r="23.7352847%" gradientTransform="translate(0.234303,0.794551),scale(0.981434,1.000000),rotate(50.903790),scale(1.000000,0.428243),translate(-0.234303,-0.794551)" id="radialGradient-23">
            <stop stop-color="#A700E9" offset="0%"></stop>
            <stop stop-color="#5C2CFF" stop-opacity="0" offset="100%"></stop>
        </radialGradient>
        <polygon id="path-24" points="88.178706 15.369174 92.475306 18.390654 78.215346 3.202074 73.918746 0.178614"></polygon>
        <radialGradient cx="55.1144661%" cy="97.4446357%" fx="55.1144661%" fy="97.4446357%" r="48.7950741%" gradientTransform="translate(0.551145,0.974446),scale(1.000000,0.951678),rotate(-23.204927),scale(1.000000,0.749334),translate(-0.551145,-0.974446)" id="radialGradient-25">
            <stop stop-color="#636FFF" stop-opacity="0.7" offset="0%"></stop>
            <stop stop-color="#7746FF" stop-opacity="0" offset="99.9155405%"></stop>
        </radialGradient>
        <radialGradient cx="34.7047891%" cy="21.7790317%" fx="34.7047891%" fy="21.7790317%" r="21.23616%" gradientTransform="translate(0.347048,0.217790),scale(1.000000,0.951678),rotate(58.240534),scale(1.000000,1.368410),translate(-0.347048,-0.217790)" id="radialGradient-26">
            <stop stop-color="#DAE3FF" stop-opacity="0.99" offset="0.0369510135%"></stop>
            <stop stop-color="#0016AB" stop-opacity="0.02" offset="100%"></stop>
        </radialGradient>
        <radialGradient cx="36.3240165%" cy="28.0498589%" fx="36.3240165%" fy="28.0498589%" r="27.5769165%" gradientTransform="translate(0.363240,0.280499),scale(1.000000,0.951678),rotate(64.247724),scale(1.000000,1.825024),translate(-0.363240,-0.280499)" id="radialGradient-27">
            <stop stop-color="#6B45FF" offset="0.023754223%"></stop>
            <stop stop-color="#8223FF" stop-opacity="0" offset="100%"></stop>
        </radialGradient>
        <radialGradient cx="6.68628678%" cy="69.1383893%" fx="6.68628678%" fy="69.1383893%" r="27.5334392%" gradientTransform="translate(0.066863,0.691384),scale(1.000000,0.951678),rotate(-30.817598),scale(1.000000,0.591610),translate(-0.066863,-0.691384)" id="radialGradient-28">
            <stop stop-color="#00AAFF" stop-opacity="0.7" offset="0%"></stop>
            <stop stop-color="#1D79FF" stop-opacity="0" offset="100%"></stop>
        </radialGradient>
        <radialGradient cx="95.2238749%" cy="28.8919326%" fx="95.2238749%" fy="28.8919326%" r="46.1171642%" gradientTransform="translate(0.952239,0.288919),scale(1.000000,0.951678),rotate(59.865015),scale(1.000000,1.049582),translate(-0.952239,-0.288919)" id="radialGradient-29">
            <stop stop-color="#FF006D" offset="0%"></stop>
            <stop stop-color="#FF009F" stop-opacity="0" offset="100%"></stop>
        </radialGradient>
        <radialGradient cx="50%" cy="98.0735736%" fx="50%" fy="98.0735736%" r="21.3820063%" gradientTransform="translate(0.500000,0.980736),scale(1.000000,0.951678),rotate(51.174920),scale(1.000000,2.302262),translate(-0.500000,-0.980736)" id="radialGradient-30">
            <stop stop-color="#FF003B" offset="0%"></stop>
            <stop stop-color="#FF0034" stop-opacity="0" offset="99.9155405%"></stop>
        </radialGradient>
        <radialGradient cx="106.357268%" cy="48.2569671%" fx="106.357268%" fy="48.2569671%" r="7.25698872%" gradientTransform="translate(1.063573,0.482570),scale(1.000000,0.951678),rotate(57.121065),scale(1.000000,3.924582),translate(-1.063573,-0.482570)" id="radialGradient-31">
            <stop stop-color="#FFA486" stop-opacity="0.99" offset="0%"></stop>
            <stop stop-color="#FF4377" stop-opacity="0.02" offset="99.0181588%"></stop>
        </radialGradient>
        <radialGradient cx="65.1513808%" cy="98.8545657%" fx="65.1513808%" fy="98.8545657%" r="7.65868661%" gradientTransform="translate(0.651514,0.988546),scale(1.000000,0.951678),rotate(55.855379),scale(1.000000,2.415944),translate(-0.651514,-0.988546)" id="radialGradient-32">
            <stop stop-color="#FF9000" offset="0%"></stop>
            <stop stop-color="#FF9D40" stop-opacity="0" offset="99.9155405%"></stop>
        </radialGradient>
        <radialGradient cx="28.6353482%" cy="8.85349246%" fx="28.6353482%" fy="8.85349246%" r="27.5334392%" gradientTransform="translate(0.286353,0.088535),scale(1.000000,0.951678),rotate(-30.817598),scale(1.000000,0.591610),translate(-0.286353,-0.088535)" id="radialGradient-33">
            <stop stop-color="#3491FF" offset="0%"></stop>
            <stop stop-color="#FF3492" stop-opacity="0" offset="100%"></stop>
        </radialGradient>
        <radialGradient cx="68.56396%" cy="37.8111248%" fx="68.56396%" fy="37.8111248%" r="9.05056154%" gradientTransform="translate(0.685640,0.378111),scale(1.000000,0.951678),rotate(55.401850),scale(1.000000,4.336251),translate(-0.685640,-0.378111)" id="radialGradient-34">
            <stop stop-color="#FF5300" offset="0%"></stop>
            <stop stop-color="#FF8E40" stop-opacity="0" offset="99.9155405%"></stop>
        </radialGradient>
        <polygon id="path-35" points="73.919142 0.179406 68.135562 6.065946 82.379682 21.240666 88.179102 15.369966"></polygon>
        <filter x="-202.1%" y="-192.3%" width="504.1%" height="484.6%" filterUnits="objectBoundingBox" id="filter-36">
            <feGaussianBlur stdDeviation="22.5" in="SourceAlpha" result="shadowBlurInner1"></feGaussianBlur>
            <feOffset dx="18" dy="36" in="shadowBlurInner1" result="shadowOffsetInner1"></feOffset>
            <feComposite in="shadowOffsetInner1" in2="SourceAlpha" operator="arithmetic" k2="-1" k3="1" result="shadowInnerInner1"></feComposite>
            <feColorMatrix values="0 0 0 0 1   0 0 0 0 0   0 0 0 0 0.918979458  0 0 0 0.67 0" type="matrix" in="shadowInnerInner1"></feColorMatrix>
        </filter>
        <linearGradient x1="16.5141793%" y1="26.8665165%" x2="81.547361%" y2="50%" id="linearGradient-37">
            <stop stop-color="#3F00A1" offset="0%"></stop>
            <stop stop-color="#7E00CA" offset="49.5539485%"></stop>
            <stop stop-color="#41009C" offset="100%"></stop>
        </linearGradient>
        <radialGradient cx="74.161377%" cy="73.4083673%" fx="74.161377%" fy="73.4083673%" r="13.7482941%" gradientTransform="translate(0.741614,0.734084),scale(0.880761,1.000000),rotate(-45.875612),scale(1.000000,0.521478),translate(-0.741614,-0.734084)" id="radialGradient-38">
            <stop stop-color="#FC2AFF" stop-opacity="0.79" offset="0%"></stop>
            <stop stop-color="#FF3075" stop-opacity="0" offset="100%"></stop>
        </radialGradient>
        <radialGradient cx="23.430331%" cy="79.4551063%" fx="23.430331%" fy="79.4551063%" r="24.8497101%" gradientTransform="translate(0.234303,0.794551),scale(0.880761,1.000000),rotate(47.840839),scale(1.000000,0.428243),translate(-0.234303,-0.794551)" id="radialGradient-39">
            <stop stop-color="#A700E9" offset="0%"></stop>
            <stop stop-color="#5C2CFF" stop-opacity="0" offset="100%"></stop>
        </radialGradient>
        <polygon id="path-40" points="82.380078 21.240864 86.676678 24.262344 92.476098 18.391644 88.179498 15.370164"></polygon>
        <linearGradient x1="24.8746626%" y1="20.1788115%" x2="73.6708575%" y2="50%" id="linearGradient-41">
            <stop stop-color="#3F00A1" offset="0%"></stop>
            <stop stop-color="#7E00CA" offset="49.5539485%"></stop>
            <stop stop-color="#41009C" offset="100%"></stop>
        </linearGradient>
        <radialGradient cx="74.161377%" cy="73.4083673%" fx="74.161377%" fy="73.4083673%" r="14.173128%" gradientTransform="translate(0.741614,0.734084),scale(1.000000,0.866215),rotate(-53.500093),scale(1.000000,0.521478),translate(-0.741614,-0.734084)" id="radialGradient-42">
            <stop stop-color="#FC2AFF" stop-opacity="0.79" offset="0%"></stop>
            <stop stop-color="#FF3075" stop-opacity="0" offset="100%"></stop>
        </radialGradient>
        <radialGradient cx="23.430331%" cy="79.4551063%" fx="23.430331%" fy="79.4551063%" r="25.8463021%" gradientTransform="translate(0.234303,0.794551),scale(1.000000,0.866215),rotate(55.363650),scale(1.000000,0.428243),translate(-0.234303,-0.794551)" id="radialGradient-43">
            <stop stop-color="#A700E9" offset="0%"></stop>
            <stop stop-color="#5C2CFF" stop-opacity="0" offset="100%"></stop>
        </radialGradient>
        <path d="M67.831632,32.44221 C67.823712,32.14323 67.817772,31.83831 67.803912,31.54131 C67.758372,30.56121 67.685112,29.59101 67.570272,28.63665 C67.566312,28.60695 67.566312,28.57923 67.562352,28.54953 C67.443552,27.56745 67.275252,26.60517 67.085172,25.65081 C67.029732,25.37163 66.966372,25.09641 66.903012,24.81921 C66.746592,24.11829 66.572352,23.42727 66.382272,22.74417 C66.332772,22.57785 66.303072,22.40163 66.251592,22.23333 C66.223872,22.13631 66.182292,22.04325 66.152592,21.94425 C65.865492,21.00375 65.550672,20.07711 65.194272,19.17621 C65.150712,19.06929 65.103192,18.96633 65.061612,18.86139 C64.734912,18.05949 64.380492,17.27541 64.002312,16.50717 C63.944892,16.39035 63.899352,16.26363 63.839952,16.14681 C63.746892,15.95673 63.636012,15.77655 63.537012,15.58845 C63.370692,15.27165 63.200412,14.95881 63.024192,14.64795 C62.830152,14.30145 62.628192,13.96089 62.422272,13.62429 C62.238132,13.32135 62.050032,13.01841 61.855992,12.72339 C61.768872,12.59073 61.689672,12.44817 61.602552,12.31551 C61.529292,12.20859 61.442172,12.11355 61.370892,12.01059 C60.755112,11.11365 60.111612,10.23651 59.416632,9.40689 C59.410692,9.39897 59.406732,9.39105 59.400792,9.38511 C59.375052,9.35343 59.343372,9.32571 59.315652,9.29601 C58.709772,8.57331 58.064292,7.88625 57.402972,7.22097 C57.313872,7.12791 57.230712,7.02495 57.141612,6.93585 C57.048552,6.84279 56.943612,6.76359 56.848572,6.67251 C56.256552,6.10425 55.648692,5.55579 55.017072,5.03109 C54.939852,4.96773 54.872532,4.89645 54.795312,4.83309 C54.771552,4.81329 54.747792,4.79745 54.724032,4.77765 C54.128052,4.29453 53.516232,3.82923 52.886592,3.38373 C52.876692,3.37779 52.868772,3.36987 52.858872,3.36393 L48.564252,0.34245 C49.203792,0.79389 49.823532,1.26513 50.429412,1.75815 C50.530392,1.83933 50.623452,1.92843 50.720472,2.01159 C51.354072,2.53629 51.961932,3.08475 52.553952,3.65301 C52.740072,3.83319 52.924212,4.01535 53.106372,4.19751 C53.769672,4.86477 54.413172,5.55183 55.021032,6.27255 C55.054692,6.31215 55.088352,6.34581 55.122012,6.38541 C55.815012,7.21701 56.458512,8.09217 57.076272,8.98911 C57.238632,9.22473 57.400992,9.46035 57.561372,9.69993 C57.753432,9.99891 57.943512,10.30185 58.129632,10.60875 C58.333572,10.94337 58.535532,11.27997 58.727592,11.62053 C58.905792,11.93733 59.076072,12.25413 59.244372,12.57291 C59.402772,12.87189 59.555232,13.17681 59.705712,13.48371 C60.083892,14.25195 60.440292,15.03801 60.765012,15.84189 C60.808572,15.94683 60.858072,16.04979 60.899652,16.15275 C61.256052,17.05563 61.568892,17.98227 61.855992,18.92277 C61.937172,19.18809 62.010432,19.45539 62.085672,19.72071 C62.277732,20.40579 62.451972,21.09879 62.608392,21.79971 C62.669772,22.07691 62.735112,22.35015 62.790552,22.63131 C62.980632,23.58171 63.146952,24.54795 63.267732,25.53003 L63.273672,25.60527 C63.390492,26.56161 63.461772,27.53577 63.509292,28.52181 C63.523152,28.81881 63.527112,29.11977 63.537012,29.42271 C63.556812,30.17709 63.554832,30.94137 63.533052,31.71159 C63.519192,32.17491 63.519192,32.63823 63.491472,33.10749 C63.414252,34.36677 63.263772,35.61021 63.083592,36.84573 C63.028152,37.20609 62.962812,37.56645 62.899452,37.92681 C62.713332,38.99403 62.507412,40.05333 62.246052,41.09481 C62.220312,41.19381 62.200512,41.29677 62.176752,41.39379 C61.901532,42.45903 61.566912,43.49655 61.218432,44.53011 C61.010532,45.14589 60.780852,45.74979 60.547212,46.35171 C60.289812,47.02293 60.026472,47.69019 59.737392,48.34557 C59.517612,48.84255 59.285952,49.33359 59.046372,49.82463 C58.711752,50.52159 58.357332,51.20865 57.987072,51.88383 C57.749472,52.31547 57.511872,52.74711 57.262392,53.17083 C56.842632,53.88165 56.399112,54.57861 55.941732,55.26369 C55.702152,55.62603 55.472472,55.99431 55.222992,56.34477 C54.650772,57.15855 54.044892,57.94659 53.423172,58.71879 C53.258832,58.92471 53.106372,59.14053 52.938072,59.34447 C52.126272,60.31665 51.278832,61.25715 50.393772,62.15805 C50.076972,62.48079 49.736412,62.77383 49.409712,63.08865 C48.803832,63.67275 48.197952,64.26081 47.560392,64.81323 C46.831752,65.44089 46.067472,66.02103 45.303192,66.60117 C44.962632,66.85857 44.639892,67.13775 44.293392,67.38525 C44.200332,67.45455 44.103312,67.51395 44.008272,67.57929 C43.121232,68.20497 42.208452,68.78709 41.279832,69.34545 C41.054112,69.48009 40.826412,69.61671 40.598712,69.74937 C39.608712,70.31763 38.600892,70.85025 37.573272,71.33931 C37.389132,71.42445 37.201032,71.50563 37.016892,71.58879 C35.965512,72.06993 34.900272,72.51345 33.813252,72.90747 C33.763752,72.92331 33.716232,72.94509 33.664752,72.96291 C32.553972,73.35891 31.417452,73.69155 30.271032,73.99053 C30.057192,74.04597 29.841372,74.10537 29.625552,74.15685 C28.508832,74.42811 27.376272,74.65185 26.231832,74.82609 C26.019972,74.85777 25.806132,74.88351 25.594272,74.91123 C24.396372,75.07359 23.192532,75.19833 21.974832,75.24783 C13.775652,75.58047 6.328872,73.26585 0.317592,69.04053 L4.614192,72.06201 C10.621512,76.28931 18.070272,78.59997 26.271432,78.26931 C27.489132,78.21783 28.692972,78.09507 29.890872,77.93271 C30.102732,77.90499 30.316572,77.87925 30.526452,77.84757 C31.670892,77.67333 32.803452,77.44959 33.920172,77.17833 C34.137972,77.12487 34.353792,77.06745 34.569612,77.01201 C35.714052,76.71303 36.848592,76.37841 37.961352,75.98439 C38.010852,75.96657 38.060352,75.94479 38.107872,75.92697 C39.196872,75.53691 40.262112,75.08943 41.313492,74.61027 C41.497632,74.52513 41.683752,74.44791 41.865912,74.36079 C42.709392,73.96083 43.540992,73.54305 44.358732,73.08963 C44.536932,72.99063 44.711172,72.87579 44.893332,72.77085 C45.121032,72.64017 45.348732,72.50157 45.576432,72.36495 C46.505052,71.81055 47.415852,71.22645 48.304872,70.60077 C48.399912,70.53345 48.494952,70.47603 48.589992,70.40871 C48.623652,70.38297 48.659292,70.36119 48.694932,70.33743 C49.005792,70.11171 49.292892,69.85431 49.597812,69.62067 C50.364072,69.04053 51.124392,68.46039 51.855012,67.83273 C51.912432,67.78521 51.973812,67.74165 52.033212,67.69215 C52.611372,67.18923 53.153892,66.64077 53.706312,66.11013 C54.031032,65.79729 54.373572,65.50227 54.688392,65.17953 C54.720072,65.14983 54.753732,65.12211 54.783432,65.08845 C55.607112,64.24497 56.401092,63.36585 57.159432,62.45901 C57.187152,62.42931 57.208932,62.39367 57.234672,62.36199 C57.399012,62.16597 57.549492,61.95213 57.709872,61.75215 C58.240512,61.09083 58.773132,60.43347 59.268132,59.74245 C59.357232,59.62167 59.432472,59.48901 59.519592,59.36823 C59.769072,59.01381 59.998752,58.64553 60.238332,58.28517 C60.545232,57.82185 60.867972,57.37437 61.159032,56.90115 C61.299612,56.66949 61.420392,56.42397 61.557012,56.19231 C61.808472,55.76661 62.046072,55.33695 62.281692,54.90531 C62.473752,54.55683 62.683632,54.22221 62.865792,53.86977 C63.038052,53.53515 63.178632,53.18469 63.342972,52.84611 C63.580572,52.35705 63.812232,51.86601 64.032012,51.36903 C64.152792,51.09579 64.293372,50.83443 64.408212,50.56119 C64.570572,50.17311 64.691352,49.76721 64.843812,49.37319 C65.075472,48.76929 65.307132,48.16539 65.513052,47.55159 C65.596212,47.30409 65.705112,47.06847 65.784312,46.81701 C66.035772,46.02501 66.261492,45.22311 66.471372,44.41527 C66.495132,44.31627 66.514932,44.21529 66.540672,44.11629 C66.695112,43.50249 66.843612,42.88671 66.972312,42.26499 C67.061412,41.82939 67.118832,41.38389 67.196052,40.94433 C67.257432,40.58595 67.322772,40.22955 67.378212,39.86721 C67.560372,38.63367 67.708872,37.38825 67.786092,36.12699 C67.801932,35.85375 67.815792,35.58051 67.827672,35.30727 C67.835592,35.11323 67.823712,34.92513 67.827672,34.73109 C67.851432,33.96285 67.851432,33.20055 67.831632,32.44221" id="path-44"></path>
        <radialGradient cx="55.1144661%" cy="97.4446357%" fx="55.1144661%" fy="97.4446357%" r="48.6985474%" gradientTransform="translate(0.551145,0.974446),scale(1.000000,0.964029),rotate(-22.938572),scale(1.000000,0.749334),translate(-0.551145,-0.974446)" id="radialGradient-45">
            <stop stop-color="#636FFF" stop-opacity="0.7" offset="0%"></stop>
            <stop stop-color="#7746FF" stop-opacity="0" offset="99.9155405%"></stop>
        </radialGradient>
        <radialGradient cx="34.7047891%" cy="21.7790317%" fx="34.7047891%" fy="21.7790317%" r="21.0398239%" gradientTransform="translate(0.347048,0.217790),scale(1.000000,0.964029),rotate(57.908956),scale(1.000000,1.368410),translate(-0.347048,-0.217790)" id="radialGradient-46">
            <stop stop-color="#DAE3FF" stop-opacity="0.99" offset="0.0369510135%"></stop>
            <stop stop-color="#0016AB" stop-opacity="0.02" offset="100%"></stop>
        </radialGradient>
        <radialGradient cx="36.3240165%" cy="28.0498589%" fx="36.3240165%" fy="28.0498589%" r="27.2906631%" gradientTransform="translate(0.363240,0.280499),scale(1.000000,0.964029),rotate(63.957460),scale(1.000000,1.825024),translate(-0.363240,-0.280499)" id="radialGradient-47">
            <stop stop-color="#6B45FF" offset="0.023754223%"></stop>
            <stop stop-color="#8223FF" stop-opacity="0" offset="100%"></stop>
        </radialGradient>
        <radialGradient cx="6.68628678%" cy="69.1383893%" fx="6.68628678%" fy="69.1383893%" r="27.4412986%" gradientTransform="translate(0.066863,0.691384),scale(1.000000,0.964029),rotate(-30.493559),scale(1.000000,0.591610),translate(-0.066863,-0.691384)" id="radialGradient-48">
            <stop stop-color="#00AAFF" stop-opacity="0.7" offset="0%"></stop>
            <stop stop-color="#1D79FF" stop-opacity="0" offset="100%"></stop>
        </radialGradient>
        <radialGradient cx="95.2238749%" cy="28.8919326%" fx="95.2238749%" fy="28.8919326%" r="45.6759752%" gradientTransform="translate(0.952239,0.288919),scale(1.000000,0.964029),rotate(59.543228),scale(1.000000,1.049582),translate(-0.952239,-0.288919)" id="radialGradient-49">
            <stop stop-color="#FF006D" offset="0%"></stop>
            <stop stop-color="#FF009F" stop-opacity="0" offset="100%"></stop>
        </radialGradient>
        <radialGradient cx="50%" cy="98.0735736%" fx="50%" fy="98.0735736%" r="21.216168%" gradientTransform="translate(0.500000,0.980736),scale(1.000000,0.964029),rotate(50.813590),scale(1.000000,2.302262),translate(-0.500000,-0.980736)" id="radialGradient-50">
            <stop stop-color="#FF003B" offset="0%"></stop>
            <stop stop-color="#FF0034" stop-opacity="0" offset="99.9155405%"></stop>
        </radialGradient>
        <radialGradient cx="106.357268%" cy="48.2569671%" fx="106.357268%" fy="48.2569671%" r="7.19154104%" gradientTransform="translate(1.063573,0.482570),scale(1.000000,0.964029),rotate(56.783365),scale(1.000000,3.924582),translate(-1.063573,-0.482570)" id="radialGradient-51">
            <stop stop-color="#FFA486" stop-opacity="0.99" offset="0%"></stop>
            <stop stop-color="#FF4377" stop-opacity="0.02" offset="99.0181588%"></stop>
        </radialGradient>
        <radialGradient cx="65.1513808%" cy="98.8545657%" fx="65.1513808%" fy="98.8545657%" r="7.59161654%" gradientTransform="translate(0.651514,0.988546),scale(1.000000,0.964029),rotate(55.511382),scale(1.000000,2.415944),translate(-0.651514,-0.988546)" id="radialGradient-52">
            <stop stop-color="#FF9000" offset="0%"></stop>
            <stop stop-color="#FF9D40" stop-opacity="0" offset="99.9155405%"></stop>
        </radialGradient>
        <radialGradient cx="28.6353482%" cy="8.85349246%" fx="28.6353482%" fy="8.85349246%" r="27.4412986%" gradientTransform="translate(0.286353,0.088535),scale(1.000000,0.964029),rotate(-30.493559),scale(1.000000,0.591610),translate(-0.286353,-0.088535)" id="radialGradient-53">
            <stop stop-color="#3491FF" offset="0%"></stop>
            <stop stop-color="#FF3492" stop-opacity="0" offset="100%"></stop>
        </radialGradient>
        <radialGradient cx="68.56396%" cy="37.8111248%" fx="68.56396%" fy="37.8111248%" r="8.97215962%" gradientTransform="translate(0.685640,0.378111),scale(1.000000,0.964029),rotate(55.055761),scale(1.000000,4.336251),translate(-0.685640,-0.378111)" id="radialGradient-54">
            <stop stop-color="#FF5300" offset="0%"></stop>
            <stop stop-color="#FF8E40" stop-opacity="0" offset="99.9155405%"></stop>
        </radialGradient>
        <path d="M55.248444,39.98601 L39.382704,40.63149 L43.859484,15.65973 L23.513004,41.27697 L39.382704,40.63149 L34.886124,65.60325 L55.248444,39.98601 Z M41.847804,0.07515 C63.419904,-0.80001 79.792524,16.63983 78.430284,39.04551 C77.068044,61.44921 58.487724,80.31267 36.913644,81.18783 C15.341544,82.06299 -1.031076,64.62117 0.333144,42.21549 C1.693404,19.81179 20.275704,0.95229 41.847804,0.07515" id="path-55"></path>
        <filter x="-51.8%" y="-49.9%" width="203.5%" height="199.8%" filterUnits="objectBoundingBox" id="filter-56">
            <feGaussianBlur stdDeviation="22.5" in="SourceAlpha" result="shadowBlurInner1"></feGaussianBlur>
            <feOffset dx="18" dy="36" in="shadowBlurInner1" result="shadowOffsetInner1"></feOffset>
            <feComposite in="shadowOffsetInner1" in2="SourceAlpha" operator="arithmetic" k2="-1" k3="1" result="shadowInnerInner1"></feComposite>
            <feColorMatrix values="0 0 0 0 1   0 0 0 0 0   0 0 0 0 0.918979458  0 0 0 0.67 0" type="matrix" in="shadowInnerInner1"></feColorMatrix>
        </filter>
        <filter x="-75.0%" y="-533.3%" width="250.0%" height="1166.7%" filterUnits="objectBoundingBox" id="filter-57">
            <feGaussianBlur stdDeviation="14.4 0" in="SourceGraphic"></feGaussianBlur>
        </filter>
    </defs>
    <g id="页面-1" stroke="none" stroke-width="1" fill="none" fill-rule="evenodd">
        <g id="-" transform="translate(-151.000000, -646.000000)">
            <g id="编组-9" transform="translate(151.000000, 646.000000)">
                <rect id="矩形" fill="#D8D8D8" opacity="0" x="0" y="0" width="144" height="144"></rect>
                <g id="编组-5" transform="translate(26.000000, 26.000000)">
                    <g id="ICON-限时秒杀">
                        <g id="Fill-1">
                            <use fill="url(#linearGradient-1)" xlink:href="#path-4"></use>
                            <use fill-opacity="0.67" fill="url(#radialGradient-2)" xlink:href="#path-4"></use>
                            <use fill="url(#radialGradient-3)" xlink:href="#path-4"></use>
                        </g>
                        <g id="Fill-2">
                            <use fill="url(#linearGradient-5)" xlink:href="#path-8"></use>
                            <use fill-opacity="0.67" fill="url(#radialGradient-6)" xlink:href="#path-8"></use>
                            <use fill="url(#radialGradient-7)" xlink:href="#path-8"></use>
                        </g>
                        <g id="Fill-3">
                            <use fill="url(#radialGradient-9)" fill-rule="evenodd" xlink:href="#path-19"></use>
                            <use fill="url(#radialGradient-10)" fill-rule="evenodd" xlink:href="#path-19"></use>
                            <use fill="url(#radialGradient-11)" fill-rule="evenodd" xlink:href="#path-19"></use>
                            <use fill="url(#radialGradient-12)" fill-rule="evenodd" xlink:href="#path-19"></use>
                            <use fill="url(#radialGradient-13)" fill-rule="evenodd" xlink:href="#path-19"></use>
                            <use fill="url(#radialGradient-14)" fill-rule="evenodd" xlink:href="#path-19"></use>
                            <use fill="url(#radialGradient-15)" fill-rule="evenodd" xlink:href="#path-19"></use>
                            <use fill="url(#radialGradient-16)" fill-rule="evenodd" xlink:href="#path-19"></use>
                            <use fill="url(#radialGradient-17)" fill-rule="evenodd" xlink:href="#path-19"></use>
                            <use fill="url(#radialGradient-18)" fill-rule="evenodd" xlink:href="#path-19"></use>
                            <use fill="black" fill-opacity="1" filter="url(#filter-20)" xlink:href="#path-19"></use>
                        </g>
                        <g id="Fill-12">
                            <use fill="url(#linearGradient-21)" xlink:href="#path-24"></use>
                            <use fill-opacity="0.67" fill="url(#radialGradient-22)" xlink:href="#path-24"></use>
                            <use fill="url(#radialGradient-23)" xlink:href="#path-24"></use>
                        </g>
                        <g id="Fill-13">
                            <use fill="url(#radialGradient-25)" fill-rule="evenodd" xlink:href="#path-35"></use>
                            <use fill="url(#radialGradient-26)" fill-rule="evenodd" xlink:href="#path-35"></use>
                            <use fill="url(#radialGradient-27)" fill-rule="evenodd" xlink:href="#path-35"></use>
                            <use fill="url(#radialGradient-28)" fill-rule="evenodd" xlink:href="#path-35"></use>
                            <use fill="url(#radialGradient-29)" fill-rule="evenodd" xlink:href="#path-35"></use>
                            <use fill="url(#radialGradient-30)" fill-rule="evenodd" xlink:href="#path-35"></use>
                            <use fill="url(#radialGradient-31)" fill-rule="evenodd" xlink:href="#path-35"></use>
                            <use fill="url(#radialGradient-32)" fill-rule="evenodd" xlink:href="#path-35"></use>
                            <use fill="url(#radialGradient-33)" fill-rule="evenodd" xlink:href="#path-35"></use>
                            <use fill="url(#radialGradient-34)" fill-rule="evenodd" xlink:href="#path-35"></use>
                            <use fill="black" fill-opacity="1" filter="url(#filter-36)" xlink:href="#path-35"></use>
                        </g>
                        <g id="Fill-14">
                            <use fill="url(#linearGradient-37)" xlink:href="#path-40"></use>
                            <use fill-opacity="0.67" fill="url(#radialGradient-38)" xlink:href="#path-40"></use>
                            <use fill="url(#radialGradient-39)" xlink:href="#path-40"></use>
                        </g>
                        <g id="编组" transform="translate(2.880000, 6.596874)">
                            <g transform="translate(14.940000, 5.940000)" id="Fill-15">
                                <g>
                                    <use fill="url(#linearGradient-41)" xlink:href="#path-44"></use>
                                    <use fill-opacity="0.67" fill="url(#radialGradient-42)" xlink:href="#path-44"></use>
                                    <use fill="url(#radialGradient-43)" xlink:href="#path-44"></use>
                                </g>
                            </g>
                            <g id="Fill-17">
                                <use fill="url(#radialGradient-45)" fill-rule="evenodd" xlink:href="#path-55"></use>
                                <use fill="url(#radialGradient-46)" fill-rule="evenodd" xlink:href="#path-55"></use>
                                <use fill="url(#radialGradient-47)" fill-rule="evenodd" xlink:href="#path-55"></use>
                                <use fill="url(#radialGradient-48)" fill-rule="evenodd" xlink:href="#path-55"></use>
                                <use fill="url(#radialGradient-49)" fill-rule="evenodd" xlink:href="#path-55"></use>
                                <use fill="url(#radialGradient-50)" fill-rule="evenodd" xlink:href="#path-55"></use>
                                <use fill="url(#radialGradient-51)" fill-rule="evenodd" xlink:href="#path-55"></use>
                                <use fill="url(#radialGradient-52)" fill-rule="evenodd" xlink:href="#path-55"></use>
                                <use fill="url(#radialGradient-53)" fill-rule="evenodd" xlink:href="#path-55"></use>
                                <use fill="url(#radialGradient-54)" fill-rule="evenodd" xlink:href="#path-55"></use>
                                <use fill="black" fill-opacity="1" filter="url(#filter-56)" xlink:href="#path-55"></use>
                            </g>
                        </g>
                        <polygon id="路径" fill="#FFFFFF" points="58.128444 46.582884 42.262704 47.228364 46.739484 22.256604 26.393004 47.873844 42.262704 47.228364 37.766124 72.200124"></polygon>
                    </g>
                    <ellipse id="椭圆形" fill="#2C0068" opacity="0.300000012" filter="url(#filter-57)" cx="45.9" cy="106.65" rx="28.8" ry="4.05"></ellipse>
                </g>
            </g>
        </g>
    </g>
</svg>