<?xml version="1.0" encoding="UTF-8"?>
<svg width="144px" height="144px" viewBox="0 0 144 144" version="1.1" xmlns="http://www.w3.org/2000/svg" xmlns:xlink="http://www.w3.org/1999/xlink">
    <!-- Generator: Sketch 56.3 (81716) - https://sketch.com -->
    <title>矩形</title>
    <desc>Created with Sketch.</desc>
    <defs>
        <filter x="-75.0%" y="-533.3%" width="250.0%" height="1166.7%" filterUnits="objectBoundingBox" id="filter-1">
            <feGaussianBlur stdDeviation="14.4 0" in="SourceGraphic"></feGaussianBlur>
        </filter>
        <linearGradient x1="16.5141793%" y1="38.4784638%" x2="81.547361%" y2="50%" id="linearGradient-2">
            <stop stop-color="#3F00A1" offset="0%"></stop>
            <stop stop-color="#7E00CA" offset="49.5539485%"></stop>
            <stop stop-color="#41009C" offset="100%"></stop>
        </linearGradient>
        <radialGradient cx="74.161377%" cy="73.4083673%" fx="74.161377%" fy="73.4083673%" r="16.7736159%" gradientTransform="translate(0.741614,0.734084),scale(0.621574,1.000000),rotate(-36.040772),scale(1.000000,0.521478),translate(-0.741614,-0.734084)" id="radialGradient-3">
            <stop stop-color="#FC2AFF" stop-opacity="0.79" offset="0%"></stop>
            <stop stop-color="#FF3075" stop-opacity="0" offset="100%"></stop>
        </radialGradient>
        <radialGradient cx="23.430331%" cy="79.4551063%" fx="23.430331%" fy="79.4551063%" r="29.9646121%" gradientTransform="translate(0.234303,0.794551),scale(0.621574,1.000000),rotate(37.933581),scale(1.000000,0.428243),translate(-0.234303,-0.794551)" id="radialGradient-4">
            <stop stop-color="#A700E9" offset="0%"></stop>
            <stop stop-color="#5C2CFF" stop-opacity="0" offset="100%"></stop>
        </radialGradient>
        <polygon id="path-5" points="3.84632182 67.0944436 14.4358855 72.7380982 10.5897764 69.4067891 0.000212727273 63.7652618"></polygon>
        <linearGradient x1="35.2420461%" y1="20.1788115%" x2="63.9036312%" y2="50%" id="linearGradient-6">
            <stop stop-color="#3F00A1" offset="0%"></stop>
            <stop stop-color="#7E00CA" offset="49.5539485%"></stop>
            <stop stop-color="#41009C" offset="100%"></stop>
        </linearGradient>
        <radialGradient cx="74.161377%" cy="73.4083673%" fx="74.161377%" fy="73.4083673%" r="17.0898963%" gradientTransform="translate(0.741614,0.734084),scale(1.000000,0.663869),rotate(-60.442152),scale(1.000000,0.521478),translate(-0.741614,-0.734084)" id="radialGradient-7">
            <stop stop-color="#FC2AFF" stop-opacity="0.79" offset="0%"></stop>
            <stop stop-color="#FF3075" stop-opacity="0" offset="100%"></stop>
        </radialGradient>
        <radialGradient cx="23.430331%" cy="79.4551063%" fx="23.430331%" fy="79.4551063%" r="31.3961932%" gradientTransform="translate(0.234303,0.794551),scale(1.000000,0.663869),rotate(62.102188),scale(1.000000,0.428243),translate(-0.234303,-0.794551)" id="radialGradient-8">
            <stop stop-color="#A700E9" offset="0%"></stop>
            <stop stop-color="#5C2CFF" stop-opacity="0" offset="100%"></stop>
        </radialGradient>
        <polygon id="path-9" points="65.7435764 12.0952964 69.5896855 15.4244782 64.0119764 4.55836909 60.1658673 1.22918727"></polygon>
        <linearGradient x1="47.04345%" y1="20.1788115%" x2="52.7853983%" y2="50%" id="linearGradient-10">
            <stop stop-color="#3F00A1" offset="0%"></stop>
            <stop stop-color="#7E00CA" offset="49.5539485%"></stop>
            <stop stop-color="#41009C" offset="100%"></stop>
        </linearGradient>
        <radialGradient cx="74.161377%" cy="73.4083673%" fx="74.161377%" fy="73.4083673%" r="34.2662709%" gradientTransform="translate(0.741614,0.734084),scale(1.000000,0.297141),rotate(-75.757374),scale(1.000000,0.521478),translate(-0.741614,-0.734084)" id="radialGradient-11">
            <stop stop-color="#FC2AFF" stop-opacity="0.79" offset="0%"></stop>
            <stop stop-color="#FF3075" stop-opacity="0" offset="100%"></stop>
        </radialGradient>
        <radialGradient cx="23.430331%" cy="79.4551063%" fx="23.430331%" fy="79.4551063%" r="63.7098494%" gradientTransform="translate(0.234303,0.794551),scale(1.000000,0.297141),rotate(76.668836),scale(1.000000,0.428243),translate(-0.234303,-0.794551)" id="radialGradient-12">
            <stop stop-color="#A700E9" offset="0%"></stop>
            <stop stop-color="#5C2CFF" stop-opacity="0" offset="100%"></stop>
        </radialGradient>
        <polygon id="path-13" points="82.7498455 14.0913164 78.9037364 10.7621345 77.7316091 24.3213709 81.5755909 27.6505527"></polygon>
        <linearGradient x1="18.360988%" y1="20.1788115%" x2="79.8074622%" y2="50%" id="linearGradient-14">
            <stop stop-color="#3F00A1" offset="0%"></stop>
            <stop stop-color="#7E00CA" offset="49.5539485%"></stop>
            <stop stop-color="#41009C" offset="100%"></stop>
        </linearGradient>
        <radialGradient cx="74.161377%" cy="73.4083673%" fx="74.161377%" fy="73.4083673%" r="13.1967448%" gradientTransform="translate(0.741614,0.734084),scale(1.000000,0.972033),rotate(-50.295344),scale(1.000000,0.521478),translate(-0.741614,-0.734084)" id="radialGradient-15">
            <stop stop-color="#FC2AFF" stop-opacity="0.79" offset="0%"></stop>
            <stop stop-color="#FF3075" stop-opacity="0" offset="100%"></stop>
        </radialGradient>
        <radialGradient cx="23.430331%" cy="79.4551063%" fx="23.430331%" fy="79.4551063%" r="23.9776655%" gradientTransform="translate(0.234303,0.794551),scale(1.000000,0.972033),rotate(52.217916),scale(1.000000,0.428243),translate(-0.234303,-0.794551)" id="radialGradient-16">
            <stop stop-color="#A700E9" offset="0%"></stop>
            <stop stop-color="#5C2CFF" stop-opacity="0" offset="100%"></stop>
        </radialGradient>
        <polygon id="path-17" points="80.7306382 42.5806036 85.9296927 53.7019855 73.9127291 61.9919673 72.3321655 75.5980036 59.1281836 77.3551309 51.1870745 89.8039309 40.3422382 84.5346764 28.1550927 92.5013127 31.9990745 95.8326218 44.18622 87.8681127 55.0331836 93.13524 62.9742927 80.6843127 76.1761473 78.93144 77.7567109 65.3211491 89.7779291 57.0311673 84.57462 45.9119127 92.1838745 33.2929309 88.3377655 29.9616218"></polygon>
        <radialGradient cx="55.1144661%" cy="97.4446357%" fx="55.1144661%" fy="97.4446357%" r="48.6696614%" gradientTransform="translate(0.551145,0.974446),scale(1.000000,0.967814),rotate(-22.858086),scale(1.000000,0.749334),translate(-0.551145,-0.974446)" id="radialGradient-18">
            <stop stop-color="#636FFF" stop-opacity="0.7" offset="0%"></stop>
            <stop stop-color="#7746FF" stop-opacity="0" offset="99.9155405%"></stop>
        </radialGradient>
        <radialGradient cx="34.7047891%" cy="21.7790317%" fx="34.7047891%" fy="21.7790317%" r="20.9807885%" gradientTransform="translate(0.347048,0.217790),scale(1.000000,0.967814),rotate(57.807803),scale(1.000000,1.368410),translate(-0.347048,-0.217790)" id="radialGradient-19">
            <stop stop-color="#DAE3FF" stop-opacity="0.99" offset="0.0369510135%"></stop>
            <stop stop-color="#0016AB" stop-opacity="0.02" offset="100%"></stop>
        </radialGradient>
        <radialGradient cx="36.3240165%" cy="28.0498589%" fx="36.3240165%" fy="28.0498589%" r="27.2045262%" gradientTransform="translate(0.363240,0.280499),scale(1.000000,0.967814),rotate(63.868778),scale(1.000000,1.825024),translate(-0.363240,-0.280499)" id="radialGradient-20">
            <stop stop-color="#6B45FF" offset="0.023754223%"></stop>
            <stop stop-color="#8223FF" stop-opacity="0" offset="100%"></stop>
        </radialGradient>
        <radialGradient cx="6.68628678%" cy="69.1383893%" fx="6.68628678%" fy="69.1383893%" r="27.4137006%" gradientTransform="translate(0.066863,0.691384),scale(1.000000,0.967814),rotate(-30.395468),scale(1.000000,0.591610),translate(-0.066863,-0.691384)" id="radialGradient-21">
            <stop stop-color="#00AAFF" stop-opacity="0.7" offset="0%"></stop>
            <stop stop-color="#1D79FF" stop-opacity="0" offset="100%"></stop>
        </radialGradient>
        <radialGradient cx="95.2238749%" cy="28.8919326%" fx="95.2238749%" fy="28.8919326%" r="45.5432879%" gradientTransform="translate(0.952239,0.288919),scale(1.000000,0.967814),rotate(59.445020),scale(1.000000,1.049582),translate(-0.952239,-0.288919)" id="radialGradient-22">
            <stop stop-color="#FF006D" offset="0%"></stop>
            <stop stop-color="#FF009F" stop-opacity="0" offset="100%"></stop>
        </radialGradient>
        <radialGradient cx="50%" cy="98.0735736%" fx="50%" fy="98.0735736%" r="21.1663519%" gradientTransform="translate(0.500000,0.980736),scale(1.000000,0.967814),rotate(50.703578),scale(1.000000,2.302262),translate(-0.500000,-0.980736)" id="radialGradient-23">
            <stop stop-color="#FF003B" offset="0%"></stop>
            <stop stop-color="#FF0034" stop-opacity="0" offset="99.9155405%"></stop>
        </radialGradient>
        <radialGradient cx="106.357268%" cy="48.2569671%" fx="106.357268%" fy="48.2569671%" r="7.17186483%" gradientTransform="translate(1.063573,0.482570),scale(1.000000,0.967814),rotate(56.680375),scale(1.000000,3.924582),translate(-1.063573,-0.482570)" id="radialGradient-24">
            <stop stop-color="#FFA486" stop-opacity="0.99" offset="0%"></stop>
            <stop stop-color="#FF4377" stop-opacity="0.02" offset="99.0181588%"></stop>
        </radialGradient>
        <radialGradient cx="65.1513808%" cy="98.8545657%" fx="65.1513808%" fy="98.8545657%" r="7.57145605%" gradientTransform="translate(0.651514,0.988546),scale(1.000000,0.967814),rotate(55.406508),scale(1.000000,2.415944),translate(-0.651514,-0.988546)" id="radialGradient-25">
            <stop stop-color="#FF9000" offset="0%"></stop>
            <stop stop-color="#FF9D40" stop-opacity="0" offset="99.9155405%"></stop>
        </radialGradient>
        <radialGradient cx="28.6353482%" cy="8.85349246%" fx="28.6353482%" fy="8.85349246%" r="27.4137006%" gradientTransform="translate(0.286353,0.088535),scale(1.000000,0.967814),rotate(-30.395468),scale(1.000000,0.591610),translate(-0.286353,-0.088535)" id="radialGradient-26">
            <stop stop-color="#3491FF" offset="0%"></stop>
            <stop stop-color="#FF3492" stop-opacity="0" offset="100%"></stop>
        </radialGradient>
        <radialGradient cx="68.56396%" cy="37.8111248%" fx="68.56396%" fy="37.8111248%" r="8.94859438%" gradientTransform="translate(0.685640,0.378111),scale(1.000000,0.967814),rotate(54.950262),scale(1.000000,4.336251),translate(-0.685640,-0.378111)" id="radialGradient-27">
            <stop stop-color="#FF5300" offset="0%"></stop>
            <stop stop-color="#FF8E40" stop-opacity="0" offset="99.9155405%"></stop>
        </radialGradient>
        <path d="M36.3404127,44.4229855 C35.7426491,45.6865855 35.0640491,45.9035673 34.6088127,45.9588764 C33.8259764,46.0503491 33.32394,45.6950945 33.1048309,44.8888582 C32.8899764,44.1889855 32.8410491,43.1721491 32.9771945,41.8426036 C33.11334,40.4939127 33.37074,39.4260218 33.7345036,38.6559491 C34.1280491,37.7624945 34.7130491,37.2966218 35.4958855,37.2051491 C36.2425582,37.1179309 36.69354,37.4646764 36.9254127,38.3177127 C37.13814,39.0388582 37.1743036,40.0195309 37.0360309,41.3660945 C36.9105218,42.6084218 36.67014,43.6422764 36.3404127,44.4229855 Z M53.7968127,47.5515655 C54.5456127,47.4643473 54.9965945,47.8089655 55.2284673,48.6620018 C55.4433218,49.3661291 55.4773582,50.36382 55.3412127,51.7125109 C55.2135764,52.9548382 54.9753218,53.9865655 54.6434673,54.7694018 C54.0457036,56.0308745 53.3692309,56.2499836 52.90974,56.3031655 C52.1290309,56.3946382 51.6269945,56.0393836 51.4078855,55.2331473 C51.1930309,54.5311473 51.1483582,53.5015473 51.2802491,52.18902 C51.4163945,50.8403291 51.6759218,49.7724382 52.0396855,49.0023655 C52.4311036,48.1089109 53.0161036,47.6430382 53.7968127,47.5515655 Z M60.1641655,51.1475073 C60.3960382,48.8543073 60.0599291,47.02698 59.1366927,45.7144527 C58.1113473,44.2253618 56.4308018,43.5914345 54.1737655,43.8573436 C51.8784382,44.12538 50.0255836,45.1719982 48.6747655,46.9397618 C47.4473291,48.4331073 46.6964018,50.3901982 46.45602,52.7535982 C46.22202,55.0638164 46.5794018,56.8379618 47.5345473,58.1802709 C48.5981836,59.6119255 50.3127655,60.2394709 52.5378927,59.9778164 C54.76302,59.7182891 56.5946018,58.7099618 57.9986018,56.9358164 C59.2196564,55.3403618 59.9365473,53.3896527 60.1641655,51.1475073 Z M36.9386018,62.3603618 L55.6096745,30.6639982 L51.3976745,31.1575255 L32.7095836,62.8560164 L36.9386018,62.3603618 Z M29.2314927,47.8332164 C30.2738564,49.2840164 32.0097109,49.8945436 34.2348382,49.6350164 C36.4578382,49.3733618 38.2915473,48.3629073 39.6955473,46.5908891 C40.9144745,44.9933073 41.6313655,43.0596164 41.8611109,40.80258 C42.0929836,38.50938 41.7590018,36.6799255 40.8315109,35.3865436 C39.81042,33.8825618 38.1277473,33.2486345 35.8685836,33.5124164 C33.5753836,33.7804527 31.7246564,34.8270709 30.3695836,36.5948345 C29.1442745,38.0860527 28.39122,40.0431436 28.1529655,42.4086709 C27.9189655,44.7188891 28.2763473,46.4930345 29.2314927,47.8332164 Z M88.3377655,29.8577618 L80.7306382,42.4767436 L85.9296927,53.5959982 L73.9127291,61.8881073 L72.3321655,75.4941436 L59.1303109,77.2512709 L51.1870745,89.6979436 L40.3422382,84.4308164 L28.1550927,92.3974527 L22.5752564,81.5292164 L9.41807455,82.8630164 L10.5880745,69.3016527 L0.000638181818,63.6601255 L7.60776545,51.0390164 L2.40658364,39.9218891 L14.4065291,31.6319073 L15.9870927,18.0237436 L29.1889473,16.2687436 L37.1343109,3.81994364 L47.9791473,9.07218 L60.1662927,1.12256182 L65.7440018,11.9907982 L78.9054382,10.6569982 L77.7311836,24.2162345 L88.3377655,29.8577618 Z" id="path-28"></path>
        <filter x="-45.8%" y="-44.4%" width="191.7%" height="188.7%" filterUnits="objectBoundingBox" id="filter-29">
            <feGaussianBlur stdDeviation="22.5" in="SourceAlpha" result="shadowBlurInner1"></feGaussianBlur>
            <feOffset dx="18" dy="36" in="shadowBlurInner1" result="shadowOffsetInner1"></feOffset>
            <feComposite in="shadowOffsetInner1" in2="SourceAlpha" operator="arithmetic" k2="-1" k3="1" result="shadowInnerInner1"></feComposite>
            <feColorMatrix values="0 0 0 0 1   0 0 0 0 0   0 0 0 0 0.918979458  0 0 0 0.67 0" type="matrix" in="shadowInnerInner1"></feColorMatrix>
        </filter>
    </defs>
    <g id="页面-1" stroke="none" stroke-width="1" fill="none" fill-rule="evenodd">
        <g id="-" transform="translate(-151.000000, -1012.000000)">
            <g id="编组-7" transform="translate(151.000000, 1012.000000)">
                <rect id="矩形" fill="#D8D8D8" opacity="0" x="0" y="0" width="144" height="144"></rect>
                <g id="编组-3" transform="translate(26.000000, 20.000000)">
                    <ellipse id="椭圆形备份-2" fill="#2C0068" opacity="0.300000012" filter="url(#filter-1)" cx="44.1" cy="111.15" rx="28.8" ry="4.05"></ellipse>
                    <g id="icon-超低折扣">
                        <g id="Fill-1">
                            <use fill="url(#linearGradient-2)" xlink:href="#path-5"></use>
                            <use fill-opacity="0.67" fill="url(#radialGradient-3)" xlink:href="#path-5"></use>
                            <use fill="url(#radialGradient-4)" xlink:href="#path-5"></use>
                        </g>
                        <g id="Fill-2">
                            <use fill="url(#linearGradient-6)" xlink:href="#path-9"></use>
                            <use fill-opacity="0.67" fill="url(#radialGradient-7)" xlink:href="#path-9"></use>
                            <use fill="url(#radialGradient-8)" xlink:href="#path-9"></use>
                        </g>
                        <polygon id="Fill-3" fill="#104875" points="9.41701091 82.96794 13.26312 86.2971218 26.4224291 84.9633218 22.57632 81.63414"></polygon>
                        <g id="Fill-4">
                            <use fill="url(#linearGradient-10)" xlink:href="#path-13"></use>
                            <use fill-opacity="0.67" fill="url(#radialGradient-11)" xlink:href="#path-13"></use>
                            <use fill="url(#radialGradient-12)" xlink:href="#path-13"></use>
                        </g>
                        <g id="Fill-5">
                            <use fill="url(#linearGradient-14)" xlink:href="#path-17"></use>
                            <use fill-opacity="0.67" fill="url(#radialGradient-15)" xlink:href="#path-17"></use>
                            <use fill="url(#radialGradient-16)" xlink:href="#path-17"></use>
                        </g>
                        <g id="编组" transform="translate(0.000000, 0.104498)">
                            <g id="形状结合">
                                <use fill="url(#radialGradient-18)" fill-rule="evenodd" xlink:href="#path-28"></use>
                                <use fill="url(#radialGradient-19)" fill-rule="evenodd" xlink:href="#path-28"></use>
                                <use fill="url(#radialGradient-20)" fill-rule="evenodd" xlink:href="#path-28"></use>
                                <use fill="url(#radialGradient-21)" fill-rule="evenodd" xlink:href="#path-28"></use>
                                <use fill="url(#radialGradient-22)" fill-rule="evenodd" xlink:href="#path-28"></use>
                                <use fill="url(#radialGradient-23)" fill-rule="evenodd" xlink:href="#path-28"></use>
                                <use fill="url(#radialGradient-24)" fill-rule="evenodd" xlink:href="#path-28"></use>
                                <use fill="url(#radialGradient-25)" fill-rule="evenodd" xlink:href="#path-28"></use>
                                <use fill="url(#radialGradient-26)" fill-rule="evenodd" xlink:href="#path-28"></use>
                                <use fill="url(#radialGradient-27)" fill-rule="evenodd" xlink:href="#path-28"></use>
                                <use fill="black" fill-opacity="1" filter="url(#filter-29)" xlink:href="#path-28"></use>
                            </g>
                            <g id="编组-47" transform="translate(28.083572, 30.663998)" fill="#FFFFFF">
                                <path d="M32.0805931,20.4835091 C31.8529749,22.7256545 31.136084,24.6763636 29.9150295,26.2718182 C28.5110295,28.0459636 26.6794477,29.0542909 24.4543204,29.3138182 C22.2291931,29.5754727 20.5146113,28.9479273 19.4509749,27.5162727 C18.4958295,26.1739636 18.1384477,24.3998182 18.3724477,22.0896 C18.6128295,19.7262 19.3637567,17.7691091 20.5911931,16.2757636 C21.9420113,14.508 23.7948658,13.4613818 26.0901931,13.1933455 C28.3472295,12.9274364 30.0277749,13.5613636 31.0531204,15.0504545 C31.9763567,16.3629818 32.3124658,18.1903091 32.0805931,20.4835091 Z M25.7132404,16.8875673 C24.9325313,16.97904 24.3475313,17.4449127 23.9561131,18.3383673 C23.5923495,19.10844 23.3328222,20.1763309 23.1966767,21.5250218 C23.0647858,22.8375491 23.1094586,23.8671491 23.3243131,24.5691491 C23.5434222,25.3753855 24.0454586,25.73064 24.8261677,25.6391673 C25.2856586,25.5859855 25.9621313,25.3668764 26.5598949,24.1054036 C26.8917495,23.3225673 27.130004,22.29084 27.2576404,21.0485127 C27.3937858,19.6998218 27.3597495,18.7021309 27.1448949,17.9980036 C26.9130222,17.1449673 26.4620404,16.8003491 25.7132404,16.8875673 Z M8.85502947,31.6963636 L4.62601129,32.1920182 L23.3141022,0.493527273 L27.5261022,-1.0125234e-13 L8.85502947,31.6963636 Z M1.14792038,17.1692182 C0.192774924,15.8290364 -0.164606894,14.0548909 0.0693931055,11.7446727 C0.307647651,9.37914545 1.0607022,7.42205455 2.28601129,5.93083636 C3.64108401,4.16307273 5.49181129,3.11645455 7.78501129,2.84841818 C10.0441749,2.58463636 11.7268477,3.21856364 12.7479386,4.72254545 C13.6754295,6.01592727 14.0094113,7.84538182 13.7775386,10.1385818 C13.5477931,12.3956182 12.8309022,14.3293091 11.6119749,15.9268909 C10.2079749,17.6989091 8.37426583,18.7093636 6.15126583,18.9710182 C3.92613856,19.2305455 2.19028401,18.6200182 1.14792038,17.1692182 Z M8.25684038,13.7589873 C8.58656765,12.9782782 8.82694947,11.9444236 8.95245856,10.7020964 C9.09073129,9.35553273 9.05456765,8.37486 8.84184038,7.65371455 C8.60996765,6.80067818 8.15898583,6.45393273 7.41231311,6.54115091 C6.62947674,6.63262364 6.04447674,7.09849636 5.65093129,7.99195091 C5.28716765,8.76202364 5.02976765,9.82991455 4.8936222,11.1786055 C4.75747674,12.5081509 4.80640401,13.5249873 5.02125856,14.22486 C5.24036765,15.0310964 5.74240401,15.3863509 6.52524038,15.2948782 C6.98047674,15.2395691 7.65907674,15.0225873 8.25684038,13.7589873 Z" id="形状结合"></path>
                            </g>
                            <g></g>
                        </g>
                    </g>
                </g>
            </g>
        </g>
    </g>
</svg>